<?xml version="1.0" encoding="UTF-8" standalone="no"?>
<svg
   width="620"
   height="680"
   version="1.1"
   viewBox="0 0 620 680"
   xml:space="preserve"
   id="svg4"
   xmlns="http://www.w3.org/2000/svg"
   xmlns:svg="http://www.w3.org/2000/svg"
   xmlns:rdf="http://www.w3.org/1999/02/22-rdf-syntax-ns#"
   xmlns:cc="http://creativecommons.org/ns#"
   xmlns:dc="http://purl.org/dc/elements/1.1/"><title
     id="title4">(Holloway) Chew, Kean Ho's Permissive License QR Notice</title><defs
     id="defs4" /><metadata
     id="metadata4"><rdf:RDF><cc:Work
         rdf:about=""><dc:title>(Holloway) Chew, Kean Ho's Permissive License QR Notice</dc:title><dc:date>October 23, 2024</dc:date><dc:creator><cc:Agent><dc:title>(Holloway) Chew, Kean Ho</dc:title></cc:Agent></dc:creator><dc:rights><cc:Agent><dc:title>All Rights Reserved</dc:title></cc:Agent></dc:rights><dc:publisher><cc:Agent><dc:title>(Holloway) Chew, Kean Ho</dc:title></cc:Agent></dc:publisher><dc:identifier>chewkeanho-license-permissive</dc:identifier><dc:relation>license notice</dc:relation><dc:language>english</dc:language><dc:source>https://doi.org/10.5281/zenodo.13788522</dc:source><dc:coverage>license, permissive</dc:coverage><dc:subject><rdf:Bag><rdf:li>license</rdf:li><rdf:li>permissive</rdf:li></rdf:Bag></dc:subject><cc:license
           rdf:resource="http://creativecommons.org/licenses/by-nd/4.0/" /></cc:Work><cc:License
         rdf:about="http://creativecommons.org/licenses/by-nd/4.0/"><cc:permits
           rdf:resource="http://creativecommons.org/ns#Reproduction" /><cc:permits
           rdf:resource="http://creativecommons.org/ns#Distribution" /><cc:requires
           rdf:resource="http://creativecommons.org/ns#Notice" /><cc:requires
           rdf:resource="http://creativecommons.org/ns#Attribution" /></cc:License></rdf:RDF></metadata><g
     id="foreground"><path
       d="m 11.750537,632.20613 q 16.965496,0 16.965496,13.33475 0,6.7994 -4.422912,10.6942 -4.356897,3.82879 -13.532788,3.82879 H 3.8289044 v 19.27597 H 1.1539459e-4 v -47.13371 z m -0.396082,3.36669 H 3.8289044 v 21.12436 h 6.5353466 q 6.799401,0 10.562177,-2.37649 3.828789,-2.37649 3.828789,-8.58177 0,-5.28109 -3.300681,-7.72359 -3.234666,-2.44251 -10.100081,-2.44251 z m 53.40505,43.76702 H 38.882173 v -47.13371 h 25.877332 v 3.43271 H 42.710962 v 17.22955 h 20.794285 v 3.43271 H 42.710962 v 19.60604 h 22.048543 z m 22.378574,-47.13371 q 8.449742,0 12.674612,2.97061 4.290889,2.9046 4.290889,9.96806 0,5.41311 -2.9046,8.51575 -2.838588,3.03663 -7.129472,4.29089 l 12.938662,21.3884 h -4.55493 L 90.43876,659.00765 H 79.216447 v 20.33219 h -3.828789 v -47.13371 z m -0.330068,3.36669 h -7.591564 v 20.13415 h 8.911837 q 5.743183,0 8.845822,-2.64054 3.168654,-2.70656 3.168654,-7.78961 0,-5.41311 -3.300681,-7.52555 -3.30068,-2.17845 -10.034068,-2.17845 z m 48.652059,43.76702 -16.89948,-43.10688 h -0.19805 q 0.066,1.84838 0.13203,4.22487 0.13203,2.31048 0.13203,4.88501 v 33.997 h -3.63075 v -47.13371 h 5.8092 l 16.23934,41.2585 h 0.19804 l 16.43739,-41.2585 h 5.67717 v 47.13371 h -3.82879 v -34.39308 q 0,-2.17845 0.066,-4.42291 0.13202,-2.31048 0.19804,-4.22488 h -0.19804 l -17.03151,43.04087 z m 47.72782,0 h -13.86286 v -2.37649 l 5.01704,-0.72615 v -40.86242 l -5.01704,-0.79216 v -2.37649 h 13.86286 v 2.37649 l -5.01703,0.79216 v 40.86242 l 5.01703,0.72615 z m 36.04349,-12.27853 q 0,4.22487 -2.11244,7.12947 -2.11243,2.9046 -5.8092,4.3569 -3.69676,1.4523 -8.38372,1.4523 -4.29089,0 -7.45954,-0.59412 -3.16865,-0.59413 -5.41312,-1.51832 v -3.76277 q 2.44251,0.9902 5.8092,1.71635 3.36669,0.72615 7.2615,0.72615 5.41311,0 8.77981,-2.31047 3.4327,-2.31048 3.4327,-6.93143 0,-2.77257 -1.32027,-4.55494 -1.25426,-1.84838 -3.96081,-3.16865 -2.64055,-1.38629 -6.79941,-2.77257 -3.96081,-1.32028 -6.7994,-2.97062 -2.83858,-1.65034 -4.35689,-4.09284 -1.51832,-2.50852 -1.51832,-6.27129 0,-3.82879 1.9144,-6.46934 1.98041,-2.70655 5.3471,-4.09284 3.43271,-1.38628 7.7896,-1.38628 3.43271,0 6.53535,0.66013 3.10264,0.66014 5.87521,1.84838 l -1.25426,3.30068 q -5.67717,-2.37649 -11.28832,-2.37649 -4.88501,0 -7.98765,2.17845 -3.03662,2.11244 -3.03662,6.27129 0,3.03663 1.32027,4.88501 1.32027,1.78237 3.82879,3.03663 2.50851,1.25425 6.13926,2.50851 4.15886,1.4523 7.12947,3.03663 3.03663,1.58433 4.68697,4.02683 1.65034,2.37649 1.65034,6.13926 z m 36.04339,0 q 0,4.22487 -2.11243,7.12947 -2.11244,2.9046 -5.8092,4.3569 -3.69676,1.4523 -8.38373,1.4523 -4.29088,0 -7.45953,-0.59412 -3.16866,-0.59413 -5.41312,-1.51832 v -3.76277 q 2.4425,0.9902 5.8092,1.71635 3.36669,0.72615 7.26149,0.72615 5.41312,0 8.77981,-2.31047 3.43271,-2.31048 3.43271,-6.93143 0,-2.77257 -1.32027,-4.55494 -1.25426,-1.84838 -3.96082,-3.16865 -2.64054,-1.38629 -6.7994,-2.77257 -3.96082,-1.32028 -6.7994,-2.97062 -2.83859,-1.65034 -4.3569,-4.09284 -1.51831,-2.50852 -1.51831,-6.27129 0,-3.82879 1.91439,-6.46934 1.98041,-2.70655 5.34711,-4.09284 3.4327,-1.38628 7.7896,-1.38628 3.43271,0 6.53535,0.66013 3.10264,0.66014 5.87521,1.84838 l -1.25426,3.30068 q -5.67717,-2.37649 -11.28833,-2.37649 -4.885,0 -7.98764,2.17845 -3.03663,2.11244 -3.03663,6.27129 0,3.03663 1.32027,4.88501 1.32028,1.78237 3.82879,3.03663 2.50852,1.25425 6.13927,2.50851 4.15885,1.4523 7.12947,3.03663 3.03662,1.58433 4.68696,4.02683 1.65034,2.37649 1.65034,6.13926 z m 20.5302,12.27853 h -13.86285 v -2.37649 l 5.01703,-0.72615 v -40.86242 l -5.01703,-0.79216 v -2.37649 h 13.86285 v 2.37649 l -5.01703,0.79216 v 40.86242 l 5.01703,0.72615 z m 41.72064,-47.13371 -17.29556,47.13371 h -3.82879 l -17.29557,-47.13371 h 4.02683 l 12.47658,33.93099 q 1.71635,4.88501 2.70655,8.64779 0.85818,-3.56474 2.77257,-8.7138 l 12.34455,-33.86498 z m 32.47873,47.13371 h -25.87733 v -47.13371 h 25.87733 v 3.43271 H 327.9558 v 17.22955 h 20.79428 v 3.43271 H 327.9558 v 19.60604 h 22.04854 z m 27.79173,0 v -47.13371 h 3.82879 v 43.63499 h 22.11456 v 3.49872 z m 44.62514,0 h -13.86285 v -2.37649 l 5.01703,-0.72615 v -40.86242 l -5.01703,-0.79216 v -2.37649 h 13.86285 v 2.37649 l -5.01703,0.79216 v 40.86242 l 5.01703,0.72615 z m 29.97022,-44.36114 q -5.8092,0 -9.96805,2.64055 -4.15886,2.57453 -6.40332,7.26149 -2.17845,4.62096 -2.17845,10.76022 0,6.33731 1.98041,11.09029 1.98041,4.68696 5.94122,7.26149 4.02683,2.57453 9.96806,2.57453 3.4327,0 6.27129,-0.52811 2.9046,-0.52811 5.47913,-1.38628 v 3.36669 q -2.44251,0.92419 -5.3471,1.4523 -2.9046,0.52811 -6.79941,0.52811 -7.12946,0 -11.94846,-3.03663 -4.75298,-3.03662 -7.19548,-8.51575 -2.37649,-5.47913 -2.37649,-12.80664 0,-6.99744 2.64054,-12.41056 2.70656,-5.47913 7.7236,-8.58177 5.08304,-3.10263 12.27853,-3.10263 6.86541,0 12.34454,2.57453 l -1.51831,3.36669 q -5.08305,-2.50852 -10.89225,-2.50852 z m 46.93563,44.36114 h -25.87733 v -47.13371 h 25.87733 v 3.43271 h -22.04854 v 17.22955 h 20.79428 v 3.43271 h -20.79428 v 19.60604 h 22.04854 z m 45.54936,0 h -4.09284 l -27.32963,-41.19248 h -0.19805 q 0.13203,2.57453 0.19805,5.47912 0.13202,2.83859 0.13202,5.94123 v 29.77213 h -3.63075 v -47.13371 h 4.09285 l 27.26362,41.06046 h 0.19804 q -0.13203,-2.04642 -0.19804,-5.21507 -0.066,-3.16866 -0.066,-5.94123 v -29.90416 h 3.63075 z m 39.34412,-12.27853 q 0,4.22487 -2.11243,7.12947 -2.11244,2.9046 -5.8092,4.3569 -3.69676,1.4523 -8.38373,1.4523 -4.29088,0 -7.45953,-0.59412 -3.16866,-0.59413 -5.41312,-1.51832 v -3.76277 q 2.4425,0.9902 5.8092,1.71635 3.36669,0.72615 7.26149,0.72615 5.41312,0 8.77981,-2.31047 3.43271,-2.31048 3.43271,-6.93143 0,-2.77257 -1.32027,-4.55494 -1.25426,-1.84838 -3.96082,-3.16865 -2.64054,-1.38629 -6.7994,-2.77257 -3.96082,-1.32028 -6.7994,-2.97062 -2.83859,-1.65034 -4.3569,-4.09284 -1.51831,-2.50852 -1.51831,-6.27129 0,-3.82879 1.91439,-6.46934 1.98041,-2.70655 5.34711,-4.09284 3.4327,-1.38628 7.7896,-1.38628 3.43271,0 6.53535,0.66013 3.10264,0.66014 5.87521,1.84838 l -1.25426,3.30068 q -5.67717,-2.37649 -11.28833,-2.37649 -4.885,0 -7.98764,2.17845 -3.03663,2.11244 -3.03663,6.27129 0,3.03663 1.32027,4.88501 1.32028,1.78237 3.82879,3.03663 2.50852,1.25425 6.13927,2.50851 4.15885,1.4523 7.12947,3.03663 3.03662,1.58433 4.68696,4.02683 1.65034,2.37649 1.65034,6.13926 z m 35.77934,12.27853 h -25.87733 v -47.13371 h 25.87733 v 3.43271 h -22.04854 v 17.22955 h 20.79429 v 3.43271 h -20.79429 v 19.60604 h 22.04854 z"
       id="text"
       aria-label="PERMISSIVE LICENSE" /><path
       d="M 0,561.35135 V 502.7027 H 58.64864 117.2973 V 561.35135 620 H 58.64864 0 Z m 100.54054,0 V 519.45946 H 58.64864 16.75675 v 41.89189 41.8919 h 41.89189 41.8919 z m -67.02703,0 v -25.13514 h 25.13513 25.13514 v 25.13514 25.13513 H 58.64864 33.51351 Z m 117.2973,50.27027 v -8.37837 h 8.37837 8.37839 v -8.37839 -8.37838 h 8.37838 8.37837 v 8.37838 8.37839 h 16.75676 16.75676 v -16.75677 -16.75675 h -16.75676 -16.75676 v -8.37838 -8.37838 h -8.37837 -8.37838 v 8.37838 8.37838 h -8.37839 -8.37837 v -8.37838 -8.37838 h -8.37838 -8.37838 v -41.89189 -41.89189 h -8.37837 -8.37838 v 8.37838 8.37837 H 100.54054 83.78378 v -8.37837 -8.37838 H 58.64864 33.51351 v 8.37838 8.37837 H 16.75675 0 v -8.37837 -8.37838 h 16.75675 16.75676 v -8.37838 -8.37838 h 8.37838 8.37838 v -8.37838 -8.37838 H 25.13514 0 v -8.37837 -8.37838 h 8.37837 8.37838 V 393.78378 368.64865 H 8.37837 0 v -8.37838 -8.37838 h 25.13514 25.13513 v 8.37838 8.37838 h 16.75675 16.75676 v -8.37838 -8.37838 h -8.37837 -8.37839 v -8.37838 -8.37838 H 33.51351 0 v -8.37837 -8.37838 H 25.13514 50.27027 V 310 301.62162 h 16.75675 16.75676 v -16.75676 -16.75675 h -8.37837 -8.37839 v 8.37838 8.37837 H 50.27027 33.51351 v 8.37838 8.37838 H 16.75675 0 v -8.37838 -8.37838 h 16.75675 16.75676 v -16.75675 -16.75676 h 8.37838 8.37838 v 8.37837 8.37839 h 8.37837 8.37838 V 251.35135 234.59459 H 50.27027 33.51351 v -8.37837 -8.37838 h -8.37837 -8.37839 v -8.37839 -8.37837 H 8.37837 0 v -8.37838 -8.37838 h 16.75675 16.75676 v 16.75676 16.75676 h 8.37838 8.37838 v -8.37839 -8.37837 h 8.37837 8.37838 V 184.32432 167.56757 H 50.27027 33.51351 v -8.37839 -8.37837 h 16.75676 16.75675 v -8.37838 -8.37838 h 33.51352 33.51351 V 108.91891 83.783783 h 8.37838 8.37838 v 16.756757 16.75675 h 8.37837 8.37839 v -8.37838 -8.37837 h 8.37838 8.37837 v 16.75675 16.75676 h -25.13514 -25.13513 v 8.37838 8.37838 H 117.2973 100.54054 v 8.37837 8.37839 h 16.75676 16.75675 v 8.37838 8.37837 h 16.75676 16.75676 v -16.75675 -16.75676 h 16.75675 16.75676 v -25.13513 -25.13514 h 8.37838 8.37838 V 83.783783 67.027023 h -8.37838 -8.37838 v 8.37839 8.37837 h -8.37838 -8.37838 v -8.37837 -8.37839 h -8.37837 -8.37838 v -8.378377 -8.378373 h -8.37839 -8.37837 v -8.378381 -8.378379 h -8.37838 -8.37838 v -8.378378 -8.378378 h 8.37838 8.37838 v 8.378378 8.378378 h 8.37837 8.37839 V 16.756757 0 h 8.37838 8.37837 v 8.378378 8.378379 h 8.37838 8.37838 v 8.378378 8.378378 h 8.37838 8.37838 V 16.756757 0 h 8.37838 8.37837 v 16.756757 16.756756 h 16.75676 16.75676 v 16.75676 16.75675 h 8.37838 8.37837 V 41.891892 16.756757 h -8.37837 -8.37838 V 8.378378 0 h 8.37838 8.37837 v 8.378378 8.378379 h 8.37838 8.37838 V 8.378378 0 H 310 h 8.37838 v 16.756757 16.756756 h 8.37838 8.37837 v 16.75676 16.75675 h 8.37838 8.37838 v 33.513517 33.51351 h 8.37838 8.37838 v 8.37838 8.37838 h -8.37838 -8.37838 v 8.37837 8.37839 h 8.37838 8.37838 v 8.37838 8.37837 h -8.37838 -8.37838 v 33.51352 33.51351 h 8.37838 8.37838 v 8.37837 8.37839 h 16.75675 16.75676 v -8.37839 -8.37837 h -8.37838 -8.37838 v -8.37838 -8.37838 h 8.37838 8.37838 v 8.37838 8.37838 h 8.37838 8.37838 v -8.37838 -8.37838 h 8.37838 8.37837 v -8.37837 -8.37838 h 25.13514 25.13513 v -8.37839 -8.37837 h -25.13513 -25.13514 v -8.37838 -8.37838 h -8.37837 -8.37838 v -8.37837 -8.37838 h 8.37838 8.37837 v -8.37839 -8.37837 h -16.75675 -16.75676 v -8.37838 -8.37838 h 8.37838 8.37838 v -8.37837 -8.37839 h -8.37838 -8.37838 v -8.37838 -8.37837 h -8.37838 -8.37838 v 8.37837 8.37838 h -8.37837 -8.37838 v -8.37838 -8.37837 h 8.37838 8.37837 v -8.378377 -8.37838 h -8.37837 -8.37838 v -8.37837 -8.37839 h 8.37838 8.37837 v -8.378377 -8.378373 h 8.37838 8.37838 v 8.378373 8.378377 h 8.37838 8.37838 v -8.378377 -8.378373 h 16.75675 16.75676 v -8.378381 -8.378379 h 16.75676 16.75675 v 16.75676 16.75675 h -8.37837 -8.37838 v 8.37839 8.37837 h 8.37838 8.37837 v 16.756757 16.75675 h -8.37837 -8.37838 V 100.54054 83.783783 h -16.75676 -16.75676 v -8.37837 -8.37839 h -8.37837 -8.37838 v 25.13514 25.135127 h 8.37838 8.37837 v -8.37838 -8.37837 h 8.37838 8.37838 v 8.37837 8.37838 h -8.37838 -8.37838 v 16.75676 16.75676 h 8.37838 8.37838 v -8.37838 -8.37838 h 16.75676 16.75675 v 8.37838 8.37838 h -16.75675 -16.75676 v 8.37837 8.37839 h 8.37838 8.37838 v 8.37838 8.37837 h 8.37838 8.37837 v -8.37837 -8.37838 h 8.37838 8.37838 v 16.75675 16.75676 h 16.75676 16.75675 v -8.37838 -8.37838 h -8.37837 -8.37838 v -8.37837 -8.37838 h 8.37838 8.37837 v -8.37839 -8.37837 H 519.45946 502.7027 v -8.37838 -8.37838 h 16.75676 16.75675 v 8.37838 8.37838 h 16.75677 16.75675 v 8.37837 8.37839 h 8.37838 8.37837 v -16.75676 -16.75676 h 8.37838 8.37839 v 33.51352 33.51351 h -16.75677 -16.75675 v 8.37837 8.37839 h 8.37838 8.37837 v 8.37838 8.37837 h 8.37838 8.37839 v 8.37838 8.37838 h -8.37839 -8.37838 v 25.13514 25.13513 h -8.37837 -8.37838 V 310 318.37838 H 594.86486 620 v 8.37838 8.37837 h -8.37838 -8.37837 v 8.37838 8.37838 H 611.62162 620 v 8.37838 8.37838 h -8.37838 -8.37837 v 8.37838 8.37837 H 611.62162 620 v 16.75676 16.75676 h -8.37838 -8.37837 v 16.75675 16.75676 H 611.62162 620 v 16.75676 16.75675 h -8.37838 -8.37837 v -8.37837 -8.37838 h -8.37839 -8.37838 v 8.37838 8.37837 h -8.37837 -8.37838 v 8.37838 8.37838 h 8.37838 8.37837 v 16.75676 16.75675 h 8.37838 8.37839 v -8.37837 -8.37838 H 611.62162 620 v 8.37838 8.37837 h -8.37838 -8.37837 v 8.37838 8.37838 H 611.62162 620 v 8.37838 8.37838 h -8.37838 -8.37837 v 16.75675 16.75677 H 611.62162 620 V 611.62162 620 h -33.51352 -33.5135 v -8.37838 -8.37837 H 527.83784 502.7027 V 611.62162 620 h -8.37838 -8.37838 v -8.37838 -8.37837 h 8.37838 8.37838 v -25.13514 -25.13514 h -8.37838 -8.37838 v 8.37838 8.37838 h -8.37837 -8.37838 v -41.89189 -41.8919 h -8.37838 -8.37838 v 33.51352 33.51351 h -8.37838 -8.37838 v 8.37838 8.37838 h -8.37837 -8.37838 v -8.37838 -8.37838 h -25.13514 -25.13513 v 8.37838 8.37838 h -8.37838 -8.37838 V 594.86486 620 h -16.75676 -16.75675 v -8.37838 -8.37837 H 310 301.62162 V 611.62162 620 h -8.37838 -8.37838 v -8.37838 -8.37837 h 8.37838 8.37838 v -8.37839 -8.37838 H 284.86486 268.10811 V 603.24325 620 h -58.64865 -58.64865 z m 184.32432,-16.75676 v -8.37838 h -8.37837 -8.37838 v -16.75675 -16.75676 h 8.37838 8.37837 v 8.37838 8.37838 h 8.37838 8.37838 v -8.37838 -8.37838 h 8.37838 8.37838 v -8.37838 -8.37838 h -8.37838 -8.37838 v 8.37838 8.37838 h -8.37838 -8.37838 v -16.75676 -16.75675 h -16.75675 -16.75676 v 16.75675 16.75676 h -25.13513 -25.13514 v -16.75676 -16.75675 h 8.37838 8.37838 v 8.37838 8.37837 h 8.37838 8.37837 v -8.37837 -8.37838 h -8.37837 -8.37838 v -33.51352 -33.51351 h 8.37838 8.37837 v 25.13514 25.13513 h 8.37838 8.37838 v -8.37838 -8.37838 h 16.75676 16.75675 v 8.37838 8.37838 h 8.37838 8.37838 v 8.37838 8.37838 h 8.37838 8.37838 v -8.37838 -8.37838 h 25.13513 25.13514 v 25.13514 25.13513 h 8.37838 8.37837 V 527.83784 502.7027 h -8.37837 -8.37838 v -8.37838 -8.37838 h 16.75675 16.75676 v -8.37837 -8.37838 h 25.13514 25.13513 v -8.37838 -8.37838 h 8.37838 8.37838 v 8.37838 8.37838 h 8.37838 8.37837 v -8.37838 -8.37838 h -8.37837 -8.37838 v -8.37838 -8.37838 h -8.37838 -8.37838 v -16.75675 -16.75676 h 8.37838 8.37838 v -8.37838 -8.37838 h 8.37838 8.37837 v 25.13514 25.13513 h 8.37838 8.37839 v 8.37838 8.37838 h 8.37837 8.37838 v -8.37838 -8.37838 h 8.37838 8.37837 v -8.37837 -8.37838 h 8.37838 8.37839 v -8.37838 -8.37838 h -8.37839 -8.37838 v 8.37838 8.37838 h -8.37837 -8.37838 v -8.37838 -8.37838 h -8.37838 -8.37837 v -8.37838 -8.37838 h 8.37837 8.37838 v -8.37837 -8.37838 h 16.75675 16.75677 v -8.37838 -8.37838 h -16.75677 -16.75675 v -16.75676 -16.75675 h -16.75675 -16.75677 v -16.75676 -16.75676 h 8.37838 8.37839 v -8.37837 -8.37838 h 8.37837 8.37838 v -8.37839 -8.37837 h -8.37838 -8.37837 v 8.37837 8.37839 h -8.37839 -8.37838 v -25.13514 -25.13513 h 8.37838 8.37839 v 8.37838 8.37837 h 8.37837 8.37838 v -8.37837 -8.37838 h -8.37838 -8.37837 v -8.37839 -8.37837 h -8.37839 -8.37838 v 8.37837 8.37839 H 519.45946 502.7027 v 8.37838 8.37837 h -16.75676 -16.75675 v 8.37838 8.37838 h -25.13514 -25.13513 v 8.37837 8.37839 h -8.37838 -8.37838 v 16.75675 16.75676 H 385.4054 368.64865 v -16.75676 -16.75675 h -8.37838 -8.37838 v 16.75675 16.75676 h 8.37838 8.37838 V 310 v 8.37838 h 8.37838 8.37837 v 16.75675 16.75676 h -8.37837 -8.37838 v -8.37838 -8.37838 h -8.37838 -8.37838 v -8.37837 -8.37838 h -8.37838 -8.37838 V 310 301.62162 h -8.37837 -8.37838 v -8.37838 -8.37838 h 8.37838 8.37837 v -8.37837 -8.37838 h -8.37837 -8.37838 v -8.37839 -8.37837 H 310 301.62162 v -8.37838 -8.37838 h 16.75676 16.75675 v -25.13514 -25.13513 h 8.37838 8.37838 v -8.37837 -8.37838 h -8.37838 -8.37838 v 8.37838 8.37837 h -8.37837 -8.37838 v -8.37837 -8.37838 h -16.75676 -16.75676 v 8.37838 8.37837 h -8.37837 -8.37838 v -16.75675 -16.75676 h 16.75675 16.75676 v -8.37838 -8.37838 H 310 h 8.37838 v 8.37838 8.37838 h 8.37838 8.37837 V 117.29729 83.783783 h -8.37837 -8.37838 V 67.027023 50.270273 H 310 301.62162 v 25.13514 25.135127 h -8.37838 -8.37838 v 8.37837 8.37838 h -8.37837 -8.37838 v -8.37838 -8.37837 h -8.37838 -8.37838 v 8.37837 8.37838 h -8.37838 -8.37838 v -8.37838 -8.37837 h -8.37837 -8.37838 v 33.51351 33.51352 h -8.37838 -8.37838 v 25.13513 25.13514 h -8.37838 -8.37838 v -8.37839 -8.37837 h -8.37837 -8.37838 v 8.37837 8.37839 h -8.37839 -8.37837 v -8.37839 -8.37837 h -8.37838 -8.37838 v -8.37838 -8.37838 H 108.91891 83.78378 v 8.37838 8.37838 h 25.13513 25.13514 v 8.37837 8.37839 h 8.37838 8.37838 v 8.37838 8.37837 H 134.05405 117.2973 v -8.37837 -8.37838 H 100.54054 83.78378 v 8.37838 8.37837 h 16.75676 16.75676 v 8.37838 8.37838 h -8.37839 -8.37837 v 8.37837 8.37839 h 25.13514 25.13513 v 8.37838 8.37837 h -8.37838 -8.37838 v 16.75676 16.75676 H 117.2973 100.54054 V 310 301.62162 h 8.37837 8.37839 v -8.37838 -8.37838 h -8.37839 -8.37837 v 8.37838 8.37838 H 92.16216 83.78378 V 310 v 8.37838 h 8.37838 8.37838 v 8.37838 8.37837 h -8.37838 -8.37838 v 8.37838 8.37838 h 8.37838 8.37838 v 8.37838 8.37838 h 25.13514 25.13513 v 8.37838 8.37837 h 8.37837 8.37839 v 8.37838 8.37838 h 16.75675 16.75676 v 8.37838 8.37838 h -8.37838 -8.37838 v 8.37838 8.37837 h 8.37838 8.37838 v 16.75676 16.75676 h 8.37838 8.37838 v 16.75675 16.75676 H 192.7027 167.56757 v -16.75676 -16.75675 h 8.37838 8.37837 v -8.37838 -8.37838 h -8.37837 -8.37838 v -16.75676 -16.75675 h -8.37839 -8.37837 v -8.37838 -8.37838 h -8.37838 -8.37838 v -8.37838 -8.37838 H 117.2973 100.54054 v 8.37838 8.37838 H 75.40541 50.27027 v 8.37838 8.37838 h 25.13514 25.13513 v 8.37838 8.37837 H 83.78378 67.02702 v 8.37838 8.37838 h 8.37839 8.37837 v 8.37838 8.37838 h 16.75676 16.75676 v -8.37838 -8.37838 h -8.37839 -8.37837 v -8.37838 -8.37838 h 16.75676 16.75675 v 16.75676 16.75676 h 8.37838 8.37838 v 41.89189 41.89189 h 8.37837 8.37839 v -16.75676 -16.75675 h 25.13513 25.13514 v 8.37838 8.37837 h -16.75676 -16.75676 v 8.37838 8.37838 h 16.75676 16.75676 v -8.37838 -8.37838 h 8.37838 8.37837 v 8.37838 8.37838 h 8.37838 8.37838 v 8.37838 8.37838 h -8.37838 -8.37838 v 8.37838 8.37837 h 8.37838 8.37838 v -8.37837 -8.37838 h 25.13514 25.13513 v 8.37838 8.37837 H 310 h 8.37838 v 8.37838 8.37839 h 8.37838 8.37837 z M 217.83784,511.08108 v -8.37838 h 16.75675 16.75676 v 8.37838 8.37838 h -16.75676 -16.75675 z m 134.05405,-16.75676 v -8.37838 h 8.37838 8.37838 v 8.37838 8.37838 h -8.37838 -8.37838 z m 50.27027,-16.75675 v -8.37838 h -8.37838 -8.37838 v -8.37838 -8.37838 h -16.75675 -16.75676 v -8.37838 -8.37838 h -8.37838 -8.37838 v 16.75676 16.75676 h -16.75675 -16.75676 v -8.37838 -8.37838 h -8.37838 -8.37838 v -8.37838 -8.37838 h 8.37838 8.37838 v -8.37837 -8.37838 h -8.37838 -8.37838 v -8.37838 -8.37838 h -8.37837 -8.37838 v 8.37838 8.37838 h -8.37838 -8.37838 v 25.13513 25.13514 h -16.75676 -16.75675 v -16.75676 -16.75676 h -8.37838 -8.37838 v -8.37837 -8.37838 h 8.37838 8.37838 v -8.37838 -8.37838 h -8.37838 -8.37838 V 385.4054 368.64865 h 25.13514 25.13513 v 8.37838 8.37837 h 8.37838 8.37838 v -16.75675 -16.75676 h -50.27027 -50.27027 v 8.37838 8.37838 h 8.37838 8.37837 v 8.37838 8.37837 h -8.37837 -8.37838 v -8.37837 -8.37838 h -8.37839 -8.37837 v -16.75676 -16.75676 h -8.37838 -8.37838 v -8.37837 -8.37838 h 8.37838 8.37838 v 8.37838 8.37837 h 8.37837 8.37839 v -8.37837 -8.37838 h 8.37838 8.37837 V 310 301.62162 h -16.75675 -16.75676 v -8.37838 -8.37838 h 8.37837 8.37839 v -16.75675 -16.75676 h -8.37839 -8.37837 v -8.37838 -8.37838 h 8.37837 8.37839 v -8.37837 -8.37838 h 8.37838 8.37837 v 8.37838 8.37837 h 8.37838 8.37838 v -8.37837 -8.37838 h 25.13514 25.13513 v 25.13513 25.13514 h 8.37838 8.37838 v -8.37839 -8.37837 h 16.75675 16.75676 v 8.37837 8.37839 H 310 h 8.37838 v 8.37838 8.37837 h -16.75676 -16.75676 v 8.37838 8.37838 h 8.37838 8.37838 V 310 318.37838 H 310 h 8.37838 v 8.37838 8.37837 h -16.75676 -16.75676 v -16.75675 -16.75676 h -8.37837 -8.37838 V 310 v 8.37838 h -16.75676 -16.75676 v 8.37838 8.37837 h 16.75676 16.75676 v 8.37838 8.37838 h 16.75675 16.75676 v 8.37838 8.37838 h -8.37838 -8.37838 v 8.37838 8.37837 h 41.8919 41.89189 v -8.37837 -8.37838 h 8.37838 8.37837 v 16.75675 16.75676 h -33.51351 -33.51351 v 8.37838 8.37838 h 25.13513 25.13514 v 8.37838 8.37837 h 16.75675 16.75676 v -8.37837 -8.37838 h 8.37838 8.37838 v -8.37838 -8.37838 h 8.37838 8.37837 v -8.37838 -8.37838 h 8.37838 8.37838 v -8.37837 -8.37838 h -16.75676 -16.75675 v -8.37838 -8.37838 h 8.37838 8.37837 v -16.75676 -16.75675 h -8.37837 -8.37838 V 310 301.62162 h 16.75675 16.75676 v -8.37838 -8.37838 h -8.37838 -8.37838 v -8.37837 -8.37838 h 25.13514 25.13513 v 8.37838 8.37837 h -8.37837 -8.37838 v 16.75676 16.75676 h 8.37838 8.37837 v 8.37838 8.37837 h 16.75676 16.75676 v 8.37838 8.37838 H 502.7027 485.94594 v -8.37838 -8.37838 h -16.75675 -16.75676 v 8.37838 8.37838 h 8.37838 8.37838 v 8.37838 8.37838 h 16.75675 16.75676 v 16.75675 16.75676 h -16.75676 -16.75675 v 8.37838 8.37838 h 8.37838 8.37837 v 8.37838 8.37837 h 8.37838 8.37838 v 8.37838 8.37838 h -16.75676 -16.75675 v -16.75676 -16.75675 h -16.75676 -16.75676 v 8.37838 8.37837 h 8.37838 8.37838 v 8.37838 8.37838 h -8.37838 -8.37838 v -8.37838 -8.37838 h -8.37837 -8.37838 v 8.37838 8.37838 h -8.37838 -8.37838 v 8.37838 8.37838 h 8.37838 8.37838 v 8.37838 8.37837 h -8.37838 -8.37838 z m -83.78378,-33.51352 v -8.37838 H 310 301.62162 v 8.37838 8.37838 H 310 318.37838 Z M 234.59459,427.2973 v -8.37838 h -8.37837 -8.37838 v 8.37838 8.37837 h 8.37838 8.37837 z m 16.75676,-33.51352 v -8.37838 h -8.37838 -8.37838 v 8.37838 8.37838 h 8.37838 8.37838 z m 217.83784,0 v -8.37838 h -8.37838 -8.37838 v 8.37838 8.37838 h 8.37838 8.37838 z M 217.83784,326.75676 v -8.37838 h 8.37838 8.37837 V 310 301.62162 h -16.75675 -16.75676 v -8.37838 -8.37838 h 8.37838 8.37838 v -8.37837 -8.37838 h 8.37838 8.37837 v 8.37838 8.37837 h 8.37838 8.37838 v 8.37838 8.37838 h 8.37838 8.37838 v -8.37838 -8.37838 h 8.37838 8.37837 v -8.37837 -8.37838 h -8.37837 -8.37838 v 8.37838 8.37837 h -8.37838 -8.37838 v -8.37837 -8.37838 h -8.37838 -8.37838 v -16.75676 -16.75676 h -16.75675 -16.75676 v 16.75676 16.75676 h -8.37838 -8.37838 v 16.75675 16.75676 h 8.37838 8.37838 v 16.75676 16.75675 h 8.37838 8.37838 z M 134.05405,427.2973 v -8.37838 h 8.37838 8.37838 v 8.37838 8.37837 h -8.37838 -8.37838 z m -33.51351,-16.75676 v -8.37838 h 8.37837 8.37839 v 8.37838 8.37838 h -8.37839 -8.37837 z m 435.67567,-50.27027 v -8.37838 h 8.37838 8.37839 v 8.37838 8.37838 h -8.37839 -8.37838 z M 100.54054,343.51351 v -8.37838 h 8.37837 8.37839 v 8.37838 8.37838 h -8.37839 -8.37837 z m 234.59459,0 v -8.37838 h 8.37838 8.37838 v 8.37838 8.37838 h -8.37838 -8.37838 z m 167.56757,-75.4054 v -16.75676 h 8.37838 8.37838 v 8.37837 8.37839 h 8.37838 8.37837 v 8.37838 8.37837 H 519.45946 502.7027 Z M 268.10811,217.83784 v -16.75676 h -16.75676 -16.75676 v -8.37838 -8.37838 h -8.37837 -8.37838 v -8.37837 -8.37838 h 16.75675 16.75676 v 8.37838 8.37837 h 8.37838 8.37838 v 8.37838 8.37838 h 8.37838 8.37837 v 16.75676 16.75675 h -8.37837 -8.37838 z m 33.51351,-25.13514 v -8.37838 H 310 h 8.37838 v 8.37838 8.37838 H 310 301.62162 Z m -50.27027,-58.64865 v -16.75676 h 8.37838 8.37838 v 16.75676 16.75676 h -8.37838 -8.37838 z m 33.51351,-8.37837 v -8.37839 h 8.37838 8.37838 v -8.37838 -8.37837 H 310 h 8.37838 v 8.37837 8.37838 H 310 301.62162 v 8.37839 8.37837 h -8.37838 -8.37838 z m 284.86487,469.18918 v -8.37838 h 8.37838 8.37837 v -8.37837 -8.37838 h -16.75675 -16.75675 v -8.37838 -8.37838 h -16.75677 -16.75675 v 8.37838 8.37838 h 8.37838 8.37837 v 8.37838 8.37837 h 8.37838 8.37839 v 8.37838 8.37839 h 8.37837 8.37838 z m -33.51352,-83.78378 v -25.13514 h -25.13513 -25.13514 v 25.13514 25.13513 h 25.13514 25.13513 z m -33.51351,0 v -8.37838 h 8.37838 8.37838 v 8.37838 8.37838 h -8.37838 -8.37838 z m 67.02703,16.75676 v -8.37838 h -8.37838 -8.37837 v 8.37838 8.37837 h 8.37837 8.37838 z M 50.27027,377.02703 v -8.37838 h -8.37838 -8.37838 v 8.37838 8.37837 h 8.37838 8.37838 z M 552.97298,175.94595 v -8.37838 h -8.37839 -8.37838 v 8.37838 8.37837 h 8.37838 8.37839 z M 83.78378,159.18918 v -8.37837 h -8.37837 -8.37839 v 8.37837 8.37839 h 8.37839 8.37837 z M 268.10811,75.405413 v -8.37839 h -16.75676 -16.75676 v 8.37839 8.37837 h 16.75676 16.75676 z m 134.05405,0 v -8.37839 h -8.37838 -8.37838 v 8.37839 8.37837 h 8.37838 8.37838 z M 201.08108,58.648646 v -8.378373 h -8.37838 -8.37838 v 8.378373 8.378377 h 8.37838 8.37838 z m 33.51351,-16.756754 v -8.378379 h -8.37837 -8.37838 v 8.378379 8.378381 h 8.37838 8.37837 z M 385.4054,611.62162 v -8.37837 h -8.37837 -8.37838 v -8.37839 -8.37838 h 8.37838 8.37837 v 8.37838 8.37839 h 8.37838 8.37838 v -8.37839 -8.37838 h 8.37838 8.37838 v 8.37838 8.37839 h 16.75675 16.75676 V 611.62162 620 H 418.91892 385.4054 Z M 0,251.35135 v -16.75676 h 8.37837 8.37838 v 16.75676 16.75676 H 8.37837 0 Z m 368.64865,-41.8919 v -8.37837 h 25.13513 25.13514 v 8.37837 8.37839 H 393.78378 368.64865 Z M 0,159.18918 v -8.37837 h 8.37837 8.37838 v 8.37837 8.37839 H 8.37837 0 Z M 0,58.648646 V 0 H 58.64864 117.2973 V 58.648646 117.29729 H 58.64864 0 Z m 100.54054,0 V 16.756757 H 58.64864 16.75675 v 41.891889 41.891894 h 41.89189 41.8919 z m -67.02703,0 V 33.513513 H 58.64864 83.78378 V 58.648646 83.783783 H 58.64864 33.51351 Z m 469.18919,0 V 0 H 561.35135 620 V 58.648646 117.29729 H 561.35135 502.7027 Z m 100.54055,0 V 16.756757 h -41.8919 -41.89189 v 41.891889 41.891894 h 41.89189 41.8919 z m -67.02704,0 V 33.513513 h 25.13514 25.13513 V 58.648646 83.783783 H 561.35135 536.21621 Z M 351.89189,41.891892 v -8.378379 h 8.37838 8.37838 v 8.378379 8.378381 h -8.37838 -8.37838 z M 402.16216,25.135135 V 16.756757 H 368.64865 335.13513 V 8.378378 0 h 67.02703 67.02703 v 8.378378 8.378379 h -16.75676 -16.75676 v 8.378378 8.378378 h -16.75675 -16.75676 z"
       id="qr" /></g></svg>
